<svg width="448" height="25" viewBox="0 0 448 25" fill="none" xmlns="http://www.w3.org/2000/svg">
<path fill-rule="evenodd" clip-rule="evenodd" d="M20.2364 3.44554L11.8591 3.44554L11.8591 24.5412H8.38056L8.38056 3.44554H0L0 0.319659L20.2364 0.319659V3.44554Z" fill="white"/>
<path d="M45.977 21.6599C51.408 21.6599 55.422 17.7165 55.422 12.4298C55.422 7.10134 51.408 3.1964 45.977 3.1964C40.5813 3.1964 36.5673 7.10134 36.5673 12.4298C36.5673 17.7165 40.5813 21.6599 45.977 21.6599ZM45.977 -3.92551e-06C53.9632 -3.92551e-06 59.0063 5.68107 59.0063 12.4298C59.0063 18.9636 54.1075 24.8563 45.9033 24.8563C37.9876 24.8563 32.983 18.9925 32.983 12.4298C32.983 5.71634 38.1319 -3.92551e-06 45.977 -3.92551e-06Z" fill="white"/>
<path fill-rule="evenodd" clip-rule="evenodd" d="M97.9175 24.5399H94.439V5.68206H94.3684L86.9112 15.0533H86.3438L78.8897 5.68206H78.816V24.5399H75.3375V0.321586H78.6044L86.6291 10.2603L94.6858 0.321586H97.9175V24.5399Z" fill="white"/>
<path fill-rule="evenodd" clip-rule="evenodd" d="M140.166 24.5399H136.688V5.68206H136.617L129.16 15.0533H128.592L121.135 5.68206H121.065V24.5399H117.586V0.321586H120.853L128.878 10.2603L136.935 0.321586H140.166V24.5399Z" fill="white"/>
<path fill-rule="evenodd" clip-rule="evenodd" d="M172.509 0.320304H176.7L167.716 11.753V24.5386H164.238V11.7177L155.254 0.320304H159.445L165.94 8.66239L172.509 0.320304Z" fill="white"/>
<path fill-rule="evenodd" clip-rule="evenodd" d="M270.828 24.5399H267.353V13.9889L253.785 13.9889V24.5399H250.306V0.321586H253.785V10.863L267.353 10.863V0.321586H270.828V24.5399Z" fill="white"/>
<path fill-rule="evenodd" clip-rule="evenodd" d="M288.722 24.5399H285.241V0.321584H288.722V24.5399Z" fill="white"/>
<path fill-rule="evenodd" clip-rule="evenodd" d="M306.473 21.4102H317.409V24.5392H302.995V0.320912H306.473V21.4102Z" fill="white"/>
<path fill-rule="evenodd" clip-rule="evenodd" d="M340.323 3.44554H330.878V10.1558L340.323 10.1558V13.2784L330.878 13.2784V24.5412H327.402V0.319663H340.323V3.44554Z" fill="white"/>
<path fill-rule="evenodd" clip-rule="evenodd" d="M355.978 24.5399H352.503V0.321584H355.978V24.5399Z" fill="white"/>
<path fill-rule="evenodd" clip-rule="evenodd" d="M389.103 22.8654C385.868 24.2857 383.249 24.8563 379.876 24.8563C372.454 24.8563 366.985 19.669 366.985 12.5676C366.985 5.43421 372.595 -3.92551e-06 379.975 -3.92551e-06C382.819 -3.92551e-06 384.81 0.461663 388.606 2.06147V5.57207C385.769 4.01394 382.819 3.1964 379.905 3.1964C374.65 3.1964 370.572 7.20714 370.572 12.4618C370.572 17.8608 374.615 21.6599 380.37 21.6599C382.249 21.6599 383.954 21.2335 385.624 20.7013V15.7288H380.969V12.6061L389.103 12.6061V22.8654Z" fill="white"/>
<path fill-rule="evenodd" clip-rule="evenodd" d="M416.085 3.44554H405.826V10.7585L415.729 10.7585V13.8812L405.826 13.8812V21.4089H416.406V24.5412H402.344V0.319663H416.085V3.44554Z" fill="white"/>
<path d="M431.779 10.8992H434.014C437.742 10.8992 438.807 8.98524 438.775 6.96224C438.733 4.68596 437.386 3.30416 434.014 3.30416H431.779V10.8992ZM434.402 0.319353C439.3 0.319353 442.356 2.91303 442.356 7.1001C442.356 9.90858 440.903 12.0021 438.31 13.0313C440.509 14.4868 441.862 16.7214 443.705 19.7415C444.738 21.4118 445.337 22.2261 447.011 24.5409H442.856L439.659 19.5619C436.463 14.5926 435.008 14.0251 433.238 14.0251H431.779V24.5409H428.297V0.319353H434.402Z" fill="white"/>
<g clip-path="url(#clip0_2_34)">
<path fill-rule="evenodd" clip-rule="evenodd" d="M229.1 1.875H194.9V6.25H229.1V1.875ZM211.05 8.125H194.9V16.875H211.05V8.125ZM212.95 16.875V8.125H229.1V16.875H212.95ZM212.95 18.75H194.9V23.125H229.1V18.75H212.95ZM193 6.25V25H231V0H193V6.25Z" fill="white"/>
</g>
<defs>
<clipPath id="clip0_2_34">
<rect width="38" height="25" fill="white" transform="translate(193)"/>
</clipPath>
</defs>
</svg>
